<svg width="186" height="119" viewBox="0 0 186 119" fill="none" xmlns="http://www.w3.org/2000/svg">
<rect x="0.929696" y="0.929696" width="184.08" height="117.142" rx="17.6642" stroke="black" stroke-width="1.85939"/>
<path fill-rule="evenodd" clip-rule="evenodd" d="M117.879 33.5897C117.762 33.6403 117.218 34.1266 116.67 34.6703C114.888 36.4373 114.887 36.5223 116.639 38.2647C118.35 39.9669 118.381 39.9669 120.093 38.2647C121.844 36.5225 121.843 36.4325 120.056 34.6675C118.841 33.4674 118.523 33.3101 117.879 33.5897ZM37.1085 37.3683C35.7549 37.618 34.6546 38.1129 33.5716 38.9591C33.3033 39.1688 30.8376 41.5898 28.0925 44.3392L23.1011 49.338L24.3116 49.3716C25.9319 49.4166 26.8978 49.6295 28.0047 50.1854C29.005 50.6878 29.2082 50.8717 33.6326 55.2793C37.9583 59.5886 38.0818 59.7008 38.5701 59.7677C39.2498 59.8609 38.9931 60.0795 43.6335 55.4564C48.001 51.1051 48.3612 50.7788 49.3726 50.2561C50.4675 49.6904 51.3367 49.4774 52.7672 49.4244L53.7904 49.3865L48.59 44.1942C42.5897 38.2034 42.6224 38.2311 40.8588 37.6521C39.8197 37.3111 38.1177 37.1823 37.1085 37.3683ZM86.6251 41.9138C81.6961 42.2643 77.4594 45.8205 76.2686 50.6067C75.9345 51.9497 75.9534 50.8547 75.9534 68.8601V85.5882L76.079 85.7605C76.5096 86.3514 77.4285 86.2932 77.7542 85.6545C77.8728 85.422 77.8743 85.2117 77.8755 69.1416C77.8765 55.5352 77.8907 52.7588 77.9621 52.2222C78.5072 48.1263 81.4276 44.9758 85.5509 44.0353C86.2373 43.8788 96.468 43.7844 97.8164 43.9223C102.351 44.3857 105.88 47.9675 106.349 52.5808C106.434 53.4144 106.434 60.2455 106.349 61.0791C105.891 65.587 102.497 69.1242 98.0724 69.7045C97.4966 69.78 96.2204 69.795 90.3852 69.795H83.3885L83.1164 69.9323C82.43 70.2786 82.4003 71.163 83.0601 71.6122L83.2647 71.7515L90.7991 71.7292C99.0231 71.705 98.4795 71.7279 99.8764 71.3475C104.376 70.1224 107.722 66.2231 108.274 61.5588C108.385 60.6295 108.406 53.3117 108.301 52.2758C107.782 47.1272 103.898 42.9653 98.769 42.0613C97.9141 41.9106 88.31 41.7939 86.6251 41.9138ZM109.687 41.9371C108.881 42.2341 108.785 43.275 109.524 43.709C109.727 43.8286 109.855 43.8358 112.298 43.8663C114.777 43.8971 114.87 43.9026 115.204 44.0361C116.239 44.4505 116.934 45.2014 117.307 46.3053C117.415 46.6266 117.421 47.1681 117.451 58.9762C117.481 71.2947 117.482 71.3117 117.607 71.4837C118.059 72.1063 119.022 71.9904 119.32 71.2775C119.45 70.966 119.441 47.0942 119.311 46.3456C118.94 44.2187 117.455 42.5998 115.347 42.0247C114.717 41.8526 110.11 41.7814 109.687 41.9371ZM125.829 41.9388C125.082 42.2642 125.032 43.3082 125.745 43.6909C125.939 43.7949 126.132 43.8039 128.17 43.8039C131.093 43.8039 131.781 43.8904 133.007 44.4124C134.069 44.8647 134.069 44.8639 139.618 50.3926C142.834 53.5969 144.928 55.6383 145.136 55.7712C146.423 56.5932 147.89 56.6733 149.283 55.9978L149.801 55.7466L154.985 50.5805C160.364 45.2192 160.515 45.081 161.524 44.5739C162.715 43.9758 163.414 43.8654 166.009 43.8651C168.57 43.8648 168.736 43.8048 168.736 42.8782C168.736 41.9405 168.653 41.9125 165.884 41.9125C163.029 41.9125 162.295 42.0325 160.813 42.7415C159.413 43.4112 159.552 43.2872 153.857 48.9611C147.942 54.8536 148.419 54.4488 147.393 54.4495C146.436 54.4502 146.821 54.7793 141.051 49.0238C138.25 46.2302 135.793 43.82 135.591 43.6678C134.332 42.7182 132.82 42.1074 131.263 41.9184C130.428 41.817 126.071 41.8335 125.829 41.9388ZM17.6639 54.786C15.9085 56.5478 14.3492 58.1539 14.1989 58.3553C12.1168 61.1431 12.1039 64.938 14.167 67.7435C14.3927 68.0505 15.7211 69.4334 17.6552 71.3748L20.7788 74.5105L22.9371 74.4996C25.5461 74.4864 25.9912 74.4235 26.9857 73.9272C27.6784 73.5814 27.914 73.3631 32.1995 69.0952C36.1156 65.1953 36.5367 64.7943 36.9256 64.5952C38.079 64.0047 39.2781 63.982 40.432 64.5288C40.8742 64.7384 41.0307 64.8865 45.158 69C50.8542 74.6772 50.431 74.4154 54.0307 74.488L56.0126 74.5281L58.7168 71.8412C61.6733 68.9037 62.4278 68.1061 62.8694 67.4514C64.4411 65.1209 64.6386 62.134 63.3889 59.5931C62.8612 58.5203 62.6572 58.2869 59.2651 54.8776L56.0479 51.6439L54.2618 51.6588C51.9974 51.6777 51.3895 51.7687 50.4927 52.2231C49.7949 52.5767 49.392 52.9493 45.3105 57.0148C42.9795 59.3366 40.9432 61.3229 40.7855 61.4287C39.7101 62.1507 38.2912 62.2325 37.078 61.6427C36.6401 61.4297 36.4398 61.2401 32.352 57.1673C26.6455 51.4818 26.9632 51.6833 23.6317 51.636C22.6926 51.6227 21.6837 51.6053 21.3898 51.5974L20.8554 51.5829L17.6639 54.786ZM146.484 57.1952C146.27 57.2438 145.858 57.3987 145.57 57.5396L145.045 57.7956L139.831 62.99C132.747 70.0474 133.281 69.734 128.351 69.734C126.157 69.734 126.013 69.7408 125.779 69.8551C125.122 70.1762 125.043 71.0904 125.637 71.5138L125.836 71.6559H128.611C131.962 71.6559 132.605 71.5533 134.164 70.7693C135.395 70.1498 135.458 70.0926 141.02 64.547C146.637 58.9468 146.401 59.1546 147.221 59.0781C147.539 59.0484 147.716 59.0688 148.071 59.1763L148.521 59.3119L153.643 64.4195C158.813 69.5745 159.192 69.9258 160.219 70.5143C161.81 71.4272 162.782 71.6306 165.738 71.6703C168.562 71.7083 168.736 71.65 168.736 70.6689C168.736 69.7407 168.541 69.6738 165.831 69.6734C163.286 69.6729 162.55 69.5455 161.357 68.8988C160.497 68.4325 160.113 68.0747 155.046 63.0217C149.505 57.4963 149.609 57.5891 148.643 57.2849C148.093 57.1116 147.046 57.0681 146.484 57.1952ZM38.2113 66.4688C38.0244 66.5355 37.0633 67.4617 33.7902 70.7296C29.4379 75.0749 29.0971 75.3838 28.0723 75.9134C26.8675 76.536 25.8768 76.7498 24.1958 76.7502C23.6005 76.7503 23.1134 76.7718 23.1134 76.7981C23.1134 76.8833 33.2566 86.9683 33.6081 87.2326C36.5096 89.4136 40.3849 89.4124 43.2277 87.2296C43.4137 87.0868 45.8691 84.6774 48.6842 81.8754L53.8025 76.7809L52.8952 76.7429C51.4886 76.6839 50.4896 76.4471 49.4572 75.9278C48.4399 75.4161 48.2507 75.2451 43.8469 70.8541C38.9812 66.0026 39.1502 66.1341 38.2113 66.4688ZM109.584 81.7294C109.584 82.2972 109.572 82.372 109.487 82.3392C108.778 82.0671 107.499 82.2022 107.065 82.5947C106.56 83.0512 106.53 84.2222 107.008 84.7524C107.397 85.183 108.056 85.2624 109.157 85.0114C109.51 84.9307 109.559 84.9311 109.621 85.0151C109.869 85.3546 109.889 85.2078 109.889 83.0957V81.0823H109.737H109.584V81.7294ZM112.938 83.0957C112.938 85.1603 112.95 85.2564 113.166 85.0398C113.217 84.9891 113.306 84.9881 113.499 85.0359C114.982 85.4045 116.034 84.9315 116.148 83.8455C116.298 82.4063 115.218 81.8487 113.35 82.4012C113.253 82.4299 113.243 82.372 113.243 81.7575V81.0823H113.091H112.938V83.0957ZM167.545 81.1562C167.528 81.2 167.522 82.1005 167.531 83.1572L167.547 85.0786H167.943H168.34V83.0957V81.1128L167.958 81.0946C167.686 81.0817 167.567 81.0994 167.545 81.1562ZM146.371 81.2923C145.226 81.5697 144.662 82.8144 145.108 84.0789C145.462 85.0805 146.691 85.4076 148.46 84.9708L148.765 84.8955L148.783 84.5752C148.804 84.2056 148.855 84.2222 148.094 84.3473C146.481 84.6124 145.868 84.2946 145.868 83.1936C145.868 82.1538 146.404 81.8178 147.923 81.9055L148.673 81.9487V81.615V81.2813L148.445 81.2435C148.055 81.179 146.708 81.2107 146.371 81.2923ZM122.329 83.1814V85.1091L123.137 85.1052C125.578 85.0934 126.144 84.8909 126.132 84.0348C126.126 83.6309 126 83.4253 125.649 83.2485L125.408 83.1267L125.668 82.8776C126.134 82.43 126.006 81.7399 125.4 81.4415C125.119 81.3033 125.033 81.2947 123.717 81.2748L122.329 81.2537V83.1814ZM158.221 81.4604C158.207 81.5041 158.177 81.6977 158.156 81.8907L158.117 82.2415H157.847H157.577V82.5466V82.8516H157.846H158.116L158.136 83.6295C158.167 84.8416 158.396 85.1425 159.284 85.1365C160.005 85.1316 160.077 85.0987 160.077 84.7747V84.5035L159.651 84.5164C159.013 84.5358 158.955 84.4575 158.928 83.5518L158.908 82.8516H159.462H160.016V82.5466V82.2415H159.47H158.924L158.906 81.8297L158.888 81.4179L158.567 81.3994C158.344 81.3866 158.238 81.4051 158.221 81.4604ZM124.676 81.9346C124.961 82.0007 125.074 82.1316 125.074 82.3962C125.074 82.7567 124.924 82.8185 124 82.8411L123.183 82.8611V82.3682V81.8754L123.808 81.8769C124.152 81.8777 124.542 81.9036 124.676 81.9346ZM84.0639 82.297C83.6012 82.3929 83.5074 82.3975 83.4663 82.3261C83.4394 82.2796 83.364 82.2415 83.2986 82.2415C83.1832 82.2415 83.1797 82.2985 83.1797 84.1634V86.0853H83.3321C83.4836 86.0853 83.4846 86.0817 83.4846 85.529C83.4846 84.9816 83.4868 84.9735 83.6218 85.011C85.3352 85.4871 86.4859 84.8569 86.3982 83.4904C86.3268 82.3764 85.5638 81.9864 84.0639 82.297ZM88.2716 82.218C87.4597 82.4275 87.0825 82.8899 87.0825 83.6753C87.0825 84.8259 88.3506 85.5006 89.6741 85.0542C90.8643 84.6528 90.9473 82.8103 89.7969 82.3294C89.5563 82.2288 88.5223 82.1533 88.2716 82.218ZM97.5234 82.2959C96.8991 82.5116 96.6341 82.9204 96.6292 83.6753C96.6215 84.85 97.2596 85.2816 98.7606 85.1168C99.6584 85.0184 99.7055 85.0039 99.7055 84.8274C99.7055 84.6606 99.709 84.6613 99.2717 84.7446C97.9012 85.0059 96.9702 84.667 96.9627 83.9041L96.9614 83.7668H98.3944H99.8275L99.8271 83.538C99.8256 82.485 98.7125 81.8849 97.5234 82.2959ZM101.718 82.2699C101.533 82.3123 101.307 82.3674 101.215 82.3923C101.08 82.4288 101.047 82.4174 101.047 82.3354C101.047 82.2642 101.005 82.239 100.91 82.2525L100.773 82.272V83.6753V85.0786H100.925H101.078L101.094 83.9066L101.111 82.7346L101.338 82.6698C101.463 82.6341 101.689 82.5903 101.84 82.5724C102.495 82.495 102.511 82.4892 102.511 82.3303C102.511 82.1538 102.295 82.1374 101.718 82.2699ZM103.771 82.264C103.027 82.474 102.646 83.1735 102.806 84.0354C102.978 84.9622 103.63 85.2812 105.011 85.1129C105.821 85.0142 105.865 84.9996 105.865 84.8279C105.865 84.6605 105.868 84.6613 105.431 84.7446C104.087 85.0008 103.289 84.738 103.149 83.9935L103.107 83.7668H104.555H106.004L105.971 83.4047C105.884 82.4474 104.91 81.9425 103.771 82.264ZM127.589 82.2214L127.33 82.2485V82.5196V82.7906H128.125C129.137 82.7906 129.464 82.922 129.464 83.3284C129.464 83.3515 129.06 83.3702 128.565 83.3702C127.301 83.3702 126.93 83.5766 126.937 84.2748C126.945 85.0591 127.788 85.3489 129.121 85.0258C129.504 84.9332 129.547 84.9328 129.612 85.0208C129.662 85.0899 129.759 85.1119 129.954 85.098L130.227 85.0786V84.0109C130.227 82.7518 130.182 82.6162 129.684 82.3685C129.382 82.2183 128.327 82.1442 127.589 82.2214ZM132.484 82.3009C132.009 82.4042 131.93 82.4081 131.886 82.3307C131.853 82.2711 131.736 82.2415 131.533 82.2415H131.23L131.247 83.6601L131.263 85.0786L131.643 85.0967L132.023 85.1148L132.039 84.0595L132.056 83.0042L132.391 82.9338C133.12 82.7809 133.709 82.8651 133.826 83.1392C133.851 83.1992 133.886 83.6682 133.902 84.1814L133.931 85.1145L134.305 85.0966L134.678 85.0786L134.698 84.4685C134.765 82.3505 134.309 81.9045 132.484 82.3009ZM136.465 82.2659C135.723 82.4657 135.415 82.8886 135.414 83.7058C135.414 84.8589 136.039 85.2954 137.43 85.1124C138.284 84.9999 138.246 85.0206 138.246 84.6713C138.246 84.4123 138.23 84.373 138.139 84.3989C136.927 84.7412 136.233 84.4693 136.233 83.6525C136.233 82.9758 136.672 82.728 137.709 82.8185L138.185 82.86V82.5591V82.2581L137.902 82.2193C137.461 82.1589 136.78 82.181 136.465 82.2659ZM139.755 82.2619C138.402 82.5685 138.261 84.6433 139.566 85.0346C141.158 85.5118 142.394 84.9151 142.391 83.6713C142.388 82.4681 141.334 81.9044 139.755 82.2619ZM150.381 82.2437C149.701 82.386 149.312 82.9197 149.316 83.7058C149.321 84.9948 150.117 85.3636 152.195 85.0393L152.637 84.9703V84.6957V84.4209L152.317 84.4599C151.052 84.6135 150.487 84.5616 150.258 84.271C149.966 83.8996 150 83.8888 151.448 83.8888H152.759V83.5915C152.759 82.5104 151.774 81.9521 150.381 82.2437ZM154.863 82.302C154.381 82.4074 154.306 82.411 154.246 82.3318C154.204 82.2748 154.074 82.2415 153.896 82.2415H153.613V83.6782V85.1149L153.994 85.0968L154.375 85.0786L154.392 84.0364L154.408 82.9942L154.795 82.923C155.441 82.8038 155.835 82.8279 156.033 82.9987L156.204 83.1458L156.235 84.1122L156.265 85.0786H156.631H156.997V83.9804C156.997 82.2685 156.566 81.9294 154.863 82.302ZM162.12 82.2709C161.918 82.3153 161.678 82.371 161.586 82.3947C161.453 82.4288 161.418 82.4167 161.418 82.3365C161.418 82.2526 161.363 82.2383 161.098 82.2536L160.778 82.272V83.6753V85.0786L161.159 85.0968L161.54 85.1149V84.0784C161.54 82.8757 161.473 82.9803 162.309 82.8923L162.943 82.8256V82.5031V82.1805L162.714 82.1853C162.588 82.188 162.321 82.2265 162.12 82.2709ZM163.903 82.2212C163.678 82.2484 163.675 82.2532 163.675 82.5141V82.7792L164.554 82.8001C165.505 82.8228 165.748 82.913 165.748 83.2436C165.748 83.3659 165.718 83.3702 164.879 83.3702C163.599 83.3702 163.248 83.5712 163.248 84.3046C163.248 85.1297 164.155 85.3588 165.793 84.9474C165.893 84.9223 165.931 84.9395 165.931 85.011C165.931 85.0882 165.997 85.1091 166.24 85.1091H166.548L166.529 83.9846C166.507 82.6926 166.485 82.6289 165.966 82.3685C165.668 82.2192 164.568 82.1407 163.903 82.2212ZM91.1091 82.3138C91.1129 82.4723 92.1952 85.0174 92.2822 85.0724C92.4563 85.1822 92.5463 85.0486 93.0544 83.9253C93.3373 83.3 93.5896 82.8095 93.615 82.8353C93.6405 82.8611 93.8913 83.3763 94.1723 83.9804C94.7017 85.1179 94.8455 85.2946 95.0027 85.0008C95.1076 84.8047 96.1076 82.3521 96.1076 82.2909C96.1076 82.2593 96.0332 82.2421 95.9424 82.2527C95.7885 82.2707 95.7456 82.3512 95.3213 83.416C95.0706 84.0452 94.85 84.5597 94.831 84.5594C94.812 84.5591 94.5657 84.0486 94.2836 83.425C93.583 81.8762 93.6181 81.8748 92.911 83.4824L92.4055 84.6317L92.085 83.8485C91.4156 82.2125 91.4469 82.2737 91.2698 82.2527C91.1656 82.2404 91.1079 82.2623 91.1091 82.3138ZM116.539 82.2873C116.54 82.3125 116.867 82.9504 117.264 83.705L117.988 85.0769L117.874 85.2989C117.671 85.6981 117.437 85.8412 116.989 85.8412C116.519 85.8412 116.378 86.0915 116.802 86.1712C117.604 86.3218 117.852 86.0647 118.881 84.0139C119.786 82.2113 119.781 82.2249 119.54 82.2527C119.387 82.2703 119.318 82.3817 118.772 83.4878L118.171 84.7036L117.533 83.4726C116.923 82.2959 116.887 82.2415 116.716 82.2415C116.617 82.2415 116.537 82.2621 116.539 82.2873ZM85.5884 82.662C86.0995 82.944 86.2142 84.0241 85.7825 84.4902C85.516 84.7779 84.9049 84.8965 84.1884 84.7995C83.4395 84.6981 83.4846 84.7697 83.4846 83.6793V82.7418L83.7822 82.6704C84.5619 82.4832 85.2586 82.48 85.5884 82.662ZM89.6675 82.6594C90.4783 83.0182 90.4228 84.4753 89.5879 84.7515C88.8735 84.9879 87.8609 84.7658 87.6018 84.3159C87.4386 84.0325 87.4307 83.2809 87.5878 82.99C87.8436 82.5164 88.9479 82.3409 89.6675 82.6594ZM98.9854 82.6332C99.2469 82.7574 99.396 82.9591 99.4437 83.2532L99.4776 83.4618H98.2183H96.9591L96.9992 83.294C97.1705 82.5793 98.1711 82.2465 98.9854 82.6332ZM105.036 82.595C105.377 82.7133 105.546 82.9051 105.6 83.2344L105.637 83.4618H104.385H103.133L103.196 83.2141C103.354 82.5914 104.203 82.3058 105.036 82.595ZM109.295 82.6095L109.584 82.6831V83.647V84.6109L109.264 84.6837C107.723 85.0344 107.054 84.726 107.054 83.6645C107.054 82.6485 107.893 82.2535 109.295 82.6095ZM115.345 82.6627C115.772 82.9032 115.942 83.7307 115.672 84.2549C115.403 84.7761 114.519 84.983 113.563 84.7484L113.243 84.6699V83.7058V82.7418L113.541 82.6704C114.322 82.4829 115.02 82.48 115.345 82.6627ZM151.819 82.9313C152.14 83.3045 152.074 83.3397 151.052 83.3397C150.076 83.3397 150.06 83.334 150.222 83.0414C150.429 82.6677 151.528 82.592 151.819 82.9313ZM141.264 82.9375C141.916 83.3648 141.633 84.4326 140.842 84.5315C139.871 84.6529 139.375 84.2264 139.526 83.399C139.629 82.8404 140.687 82.5593 141.264 82.9375ZM125.043 83.5884C125.196 83.6616 125.229 83.7174 125.244 83.923C125.276 84.3542 125.162 84.404 124.092 84.4271L123.183 84.4467V83.9464V83.4461L124.022 83.4733C124.576 83.4912 124.922 83.5303 125.043 83.5884ZM129.464 84.1591V84.4293L129.144 84.4902C128.114 84.6862 127.699 84.6067 127.697 84.2126C127.695 83.9547 127.902 83.8888 128.716 83.8888H129.464V84.1591ZM165.748 84.1591V84.4293L165.397 84.5026C164.554 84.6788 163.98 84.5747 163.98 84.2455C163.98 83.9571 164.172 83.8888 164.986 83.8888H165.748V84.1591Z" fill="black"/>
</svg>
